<svg xmlns="http://www.w3.org/2000/svg" viewBox="0 0 1200 320" width="1200" height="320" role="img" aria-label="Crumb — restaurants from the people you actually trust">
  <defs>
    <linearGradient id="bg" x1="0" y1="0" x2="1" y2="1">
      <stop offset="0" stop-color="#FAF6EE"/>
      <stop offset="1" stop-color="#FFEFE7"/>
    </linearGradient>
    <radialGradient id="warm" cx="0.85" cy="0.15" r="0.8">
      <stop offset="0" stop-color="#F2A93B" stop-opacity="0.18"/>
      <stop offset="1" stop-color="#F2A93B" stop-opacity="0"/>
    </radialGradient>
    <filter id="noise" x="0%" y="0%" width="100%" height="100%">
      <feTurbulence type="fractalNoise" baseFrequency="0.9" numOctaves="2" result="t"/>
      <feColorMatrix in="t" values="0 0 0 0 0.4  0 0 0 0 0.35  0 0 0 0 0.25  0 0 0 0.04 0"/>
      <feComposite in2="SourceGraphic" operator="in"/>
    </filter>
    <filter id="pinShadow" x="-50%" y="-50%" width="200%" height="200%">
      <feGaussianBlur in="SourceAlpha" stdDeviation="3"/>
      <feOffset dy="3"/>
      <feComponentTransfer><feFuncA type="linear" slope="0.35"/></feComponentTransfer>
      <feMerge><feMergeNode/><feMergeNode in="SourceGraphic"/></feMerge>
    </filter>
  </defs>

  <!-- background -->
  <rect width="1200" height="320" fill="url(#bg)"/>
  <rect width="1200" height="320" fill="url(#warm)"/>
  <rect width="1200" height="320" filter="url(#noise)"/>

  <!-- horizon line (subtle) -->
  <path d="M0 220 Q 300 200 600 215 T 1200 210" stroke="#E6DBC2" stroke-width="1" fill="none"/>

  <!-- pin cluster on the right -->
  <g transform="translate(720, 70)" filter="url(#pinShadow)">
    <!-- dashed route -->
    <path d="M 60 180 L 180 100 L 290 200 L 400 80" stroke="#DA3F2A" stroke-width="2.5" stroke-dasharray="6 6" stroke-linecap="round" fill="none" opacity="0.55"/>

    <!-- pin 1 -->
    <g transform="translate(60,180)">
      <circle cx="0" cy="0" r="14" fill="#DA3F2A"/>
      <circle cx="0" cy="0" r="14" fill="white" fill-opacity="0.18"/>
      <circle cx="-4" cy="-5" r="4" fill="white" fill-opacity="0.4"/>
      <text x="0" y="4" text-anchor="middle" font-family="ui-sans-serif, system-ui" font-size="11" font-weight="700" fill="white">1</text>
    </g>
    <!-- pin 2 -->
    <g transform="translate(180,100)">
      <circle cx="0" cy="0" r="14" fill="#DA3F2A"/>
      <circle cx="-4" cy="-5" r="4" fill="white" fill-opacity="0.4"/>
      <text x="0" y="4" text-anchor="middle" font-family="ui-sans-serif, system-ui" font-size="11" font-weight="700" fill="white">2</text>
    </g>
    <!-- pin 3 -->
    <g transform="translate(290,200)">
      <circle cx="0" cy="0" r="14" fill="#DA3F2A"/>
      <circle cx="-4" cy="-5" r="4" fill="white" fill-opacity="0.4"/>
      <text x="0" y="4" text-anchor="middle" font-family="ui-sans-serif, system-ui" font-size="11" font-weight="700" fill="white">3</text>
    </g>
    <!-- pin 4 -->
    <g transform="translate(400,80)">
      <circle cx="0" cy="0" r="14" fill="#DA3F2A"/>
      <circle cx="-4" cy="-5" r="4" fill="white" fill-opacity="0.4"/>
      <text x="0" y="4" text-anchor="middle" font-family="ui-sans-serif, system-ui" font-size="11" font-weight="700" fill="white">4</text>
    </g>
  </g>

  <!-- wordmark + tagline -->
  <g transform="translate(80, 120)">
    <!-- logo glyph -->
    <g transform="translate(0, -10)">
      <rect x="0" y="0" width="56" height="56" rx="14" fill="#DA3F2A"/>
      <path d="M 28 12 c -8 0 -14.5 6.5 -14.5 14.5 c 0 10.3 14 25 14 25 s 14 -14.7 14 -25 c 0 -8 -6.5 -14.5 -14 -14.5 z" fill="white" fill-opacity="0.96"/>
      <path d="M 21 27 c 0 2 4 3.5 7 3.5 s 7 -1.5 7 -3.5" stroke="#DA3F2A" stroke-width="1.5" stroke-linecap="round" fill="none"/>
      <path d="M 24 19 c 0.5 0.6 -0.2 1.2 0 1.8 M 28 18 c 0.5 0.6 -0.2 1.4 0 2 M 32 19 c 0.5 0.6 -0.2 1.2 0 1.8" stroke="#DA3F2A" stroke-width="1" stroke-linecap="round" fill="none" opacity="0.6"/>
    </g>

    <text x="80" y="32" font-family="ui-sans-serif, system-ui, -apple-system" font-size="64" font-weight="800" fill="#1A1814" letter-spacing="-2">Crumb</text>
    <text x="80" y="74" font-family="ui-sans-serif, system-ui, -apple-system" font-size="20" font-weight="500" fill="#3A352D">A community map of restaurants <tspan fill="#DA3F2A" font-weight="600">recommended by</tspan> the people you actually trust.</text>
    <text x="80" y="110" font-family="ui-monospace, SF Mono, Menlo, monospace" font-size="11" fill="#6F665A" letter-spacing="2">DROP A LINK / WATCH / EXTRACT / PIN</text>
  </g>
</svg>
